<mxfile host="app.diagrams.net" modified="2023-07-24T15:39:09.511Z" agent="Mozilla/5.0 (Windows NT 10.0; Win64; x64) AppleWebKit/537.36 (KHTML, like Gecko) Chrome/114.0.0.0 Safari/537.36" version="21.5.2" etag="_BRfO-4AcPZSF_OetWud" type="github">
  <diagram name="第 1 页" id="-914aK6YC1FXRb001rU6">
    <mxGraphModel>
      <root>
        <mxCell id="0" />
        <mxCell id="1" parent="0" />
      </root>
    </mxGraphModel>
  </diagram>
</mxfile>
